<svg width="135" height="138" viewBox="0 0 135 138" fill="none" xmlns="http://www.w3.org/2000/svg">
<path d="M134.74 96.3403L115.14 55.6403C114.14 53.5403 116.04 51.2403 118.24 51.7403L127.84 53.9403C129.34 54.2403 130.84 53.3403 131.14 51.8403L134.04 39.3403C134.34 37.8403 133.44 36.3403 131.94 36.0403L87.8403 25.9403C85.5403 25.4403 84.9403 22.5403 86.7403 21.0403L94.4403 14.9403C95.6403 13.9403 95.8403 12.2403 94.8403 11.0403L86.8403 1.04028C85.8403 -0.159722 84.1403 -0.359722 82.9403 0.640278L47.6403 28.8403C45.8403 30.3403 43.1403 29.0403 43.1403 26.6403V16.7403C43.1403 15.2403 41.9403 13.9403 40.3403 13.9403H27.5403C26.0403 13.9403 24.7403 15.1403 24.7403 16.7403V61.9403C24.7403 64.2403 22.0403 65.5403 20.2403 64.1403L12.5403 58.0403C11.3403 57.0403 9.64027 57.2403 8.64027 58.4403L0.640274 68.4403C-0.359726 69.6403 -0.159716 71.3403 1.04028 72.3403L36.3403 100.54C38.1403 102.04 37.5403 104.94 35.2403 105.44L25.6403 107.64C24.1403 107.94 23.2403 109.44 23.5403 110.94L26.4403 123.44C26.7403 124.94 28.2403 125.84 29.7403 125.54L73.8403 115.44C76.1403 114.94 77.9403 117.24 76.9403 119.34L72.6403 128.24C71.9403 129.64 72.5403 131.24 73.9403 131.94L85.5403 137.54C86.9403 138.24 88.5403 137.64 89.2403 136.24L108.84 95.5403C109.84 93.4403 112.84 93.4403 113.84 95.5403L118.14 104.44C118.84 105.84 120.44 106.44 121.84 105.74L133.44 100.14C134.84 99.3403 135.34 97.7403 134.74 96.3403ZM93.6403 84.5403L83.0403 106.64C81.9403 109.04 78.4403 108.64 77.8403 106.04L76.1403 98.8403C75.8403 97.3403 74.3403 96.4403 72.8403 96.7403L48.9403 102.24C46.3403 102.84 44.5403 99.8403 46.1403 97.8403L50.7403 92.0403C51.7403 90.8403 51.5403 89.1403 50.3403 88.1403L31.1403 72.8403C29.0403 71.2403 30.2403 67.8403 32.8403 67.8403H40.2403C41.7403 67.8403 43.0403 66.6403 43.0403 65.0403V40.5403C43.0403 37.9403 46.3403 36.7403 48.0403 38.8403L52.7403 44.5403C53.7403 45.7403 55.4403 45.9403 56.6403 44.9403L75.7403 29.7403C77.8403 28.1403 80.7403 29.9403 80.1403 32.5403L78.4403 39.7403C78.1403 41.2403 79.0403 42.7403 80.5403 43.0403L104.44 48.5403C107.04 49.1403 107.44 52.6403 105.04 53.7403L98.3403 56.9403C96.9403 57.6403 96.3403 59.2403 97.0403 60.6403L107.64 82.7403C108.74 85.1403 106.34 87.6403 103.94 86.4403L97.2403 83.2403C95.9403 82.6403 94.3403 83.1403 93.6403 84.5403Z" fill="white"/>
</svg>
