<svg width="135" height="126" viewBox="0 0 135 126" fill="none" xmlns="http://www.w3.org/2000/svg">
<path d="M51.2422 57.75C54.7422 59.75 55.9422 64.25 53.9422 67.75C51.9422 71.25 47.4422 72.45 43.9422 70.45L29.6422 62.05C22.5422 57.85 13.7422 63.55 14.6422 71.75L14.8422 73.65C15.7422 81.55 12.3423 89.35 6.04225 94.05C-7.95775 104.55 4.6422 126.35 20.7422 119.45C28.0422 116.35 36.4422 117.25 42.8422 122.05L44.3422 123.15C50.9422 128.05 60.3422 123.25 60.2422 115.05L60.1422 98.45C60.1422 94.35 63.4422 91.15 67.4422 91.15C71.4422 91.15 74.7422 94.45 74.7422 98.45L74.6422 115.05C74.5422 123.25 83.9423 128.05 90.5423 123.15L92.0423 122.05C98.4423 117.35 106.842 116.35 114.142 119.45C130.242 126.35 142.842 104.55 128.842 94.05C122.442 89.25 119.142 81.55 120.042 73.65L120.242 71.75C121.142 63.55 112.342 57.85 105.242 62.05L90.9422 70.45C87.4422 72.45 82.9422 71.25 80.9422 67.75C78.9422 64.25 80.1422 59.75 83.6422 57.75L98.1422 49.55C105.342 45.45 104.742 35.05 97.2422 31.75L95.5423 30.95C88.2423 27.75 83.1422 20.95 82.2422 13.05C80.2422 -4.35 54.9422 -4.35 52.9422 13.05C52.0422 20.95 46.9422 27.75 39.6422 30.95L37.9422 31.75C30.4422 35.05 29.8423 45.55 37.0423 49.55L51.2422 57.75Z" fill="#1422A3"/>
</svg>
