<svg width="24" height="24" viewBox="0 0 24 24" fill="none" xmlns="http://www.w3.org/2000/svg">
<path fill-rule="evenodd" clip-rule="evenodd" d="M0.999853 12C0.999853 5.92487 5.92472 1 11.9999 1C18.075 1 22.9999 5.92487 22.9999 12C22.9999 18.0751 18.075 23 11.9999 23C10.3271 23 8.73925 22.626 7.31749 21.9563L0.725098 23.2748L2.04358 16.6824C1.37388 15.2606 0.999853 13.6727 0.999853 12ZM11.9999 3C7.02929 3 2.99985 7.02944 2.99985 12C2.99985 13.4751 3.35398 14.8647 3.98098 16.091L4.13947 16.4009L3.27461 20.7252L7.59892 19.8604L7.9089 20.0189C9.13518 20.6459 10.5247 21 11.9999 21C16.9704 21 20.9999 16.9706 20.9999 12C20.9999 7.02944 16.9704 3 11.9999 3Z" fill="black"/>
</svg>
