<svg width="24" height="24" viewBox="0 0 24 24" fill="none" xmlns="http://www.w3.org/2000/svg">
<path d="M14.1961 7.7002H16.1961V12.7002H11.1961V10.7002H13.0192C12.6663 10.3888 12.2028 10.2002 11.6961 10.2002C10.5916 10.2002 9.69614 11.0956 9.69614 12.2002C9.69614 13.3048 10.5916 14.2002 11.6961 14.2002C12.209 14.2002 12.6747 14.0085 13.0292 13.6912L13.7744 13.0243L15.1082 14.5145L14.3631 15.1814C13.656 15.8142 12.72 16.2002 11.6961 16.2002C9.487 16.2002 7.69614 14.4093 7.69614 12.2002C7.69614 9.99106 9.487 8.2002 11.6961 8.2002C12.6427 8.2002 13.5117 8.52879 14.1961 9.07764V7.7002Z" fill="black"/>
<path fill-rule="evenodd" clip-rule="evenodd" d="M0.999853 12C0.999853 5.92487 5.92472 1 11.9999 1C18.075 1 22.9999 5.92487 22.9999 12C22.9999 18.0751 18.075 23 11.9999 23C10.3271 23 8.73925 22.626 7.31749 21.9563L0.725098 23.2748L2.04358 16.6824C1.37388 15.2606 0.999853 13.6727 0.999853 12ZM11.9999 3C7.02929 3 2.99985 7.02944 2.99985 12C2.99985 13.4751 3.35398 14.8647 3.98098 16.091L4.13947 16.4009L3.27461 20.7252L7.59892 19.8604L7.9089 20.0189C9.13518 20.6459 10.5247 21 11.9999 21C16.9704 21 20.9999 16.9706 20.9999 12C20.9999 7.02944 16.9704 3 11.9999 3Z" fill="black"/>
</svg>
