<svg width="24" height="24" viewBox="0 0 24 24" fill="none" xmlns="http://www.w3.org/2000/svg">
<path d="M11.9564 8C11.1337 8 10.44 8.56264 10.2436 9.32561L9.99433 10.2941L8.05745 9.79553L8.30671 8.8271C8.725 7.20194 10.1991 6 11.9564 6C14.0377 6 15.7249 7.6872 15.7249 9.76847C15.7249 10.8994 15.1864 11.6577 14.5733 12.2541C14.3129 12.5074 14.0161 12.7535 13.7374 12.9845C13.7055 13.0109 13.6739 13.0371 13.6426 13.0631C13.3253 13.3267 13.0123 13.5915 12.7027 13.8973L11.9912 14.6L10.5858 13.1769L11.2973 12.4742C11.6725 12.1037 12.0425 11.7923 12.3645 11.5248C12.3947 11.4997 12.4243 11.4751 12.4534 11.451C12.7454 11.2087 12.9788 11.015 13.1787 10.8205C13.5857 10.4246 13.7249 10.1505 13.7249 9.76847C13.7249 8.79177 12.9331 8 11.9564 8Z" fill="black"/>
<path d="M10.97 16H12.98V18H10.97V16Z" fill="black"/>
<path fill-rule="evenodd" clip-rule="evenodd" d="M1 12C1 5.92487 5.92487 1 12 1C18.0751 1 23 5.92487 23 12C23 18.0751 18.0751 23 12 23C5.92487 23 1 18.0751 1 12ZM12 3C7.02944 3 3 7.02944 3 12C3 16.9706 7.02944 21 12 21C16.9706 21 21 16.9706 21 12C21 7.02944 16.9706 3 12 3Z" fill="black"/>
</svg>
